<svg width="48" height="48" viewBox="0 0 48 48" fill="none" xmlns="http://www.w3.org/2000/svg">
<path d="M48 23.9999C48 37.2557 37.2543 48 23.9999 48C10.7449 48 0 37.2557 0 23.9999C0 10.7455 10.7449 0 23.9999 0C37.2543 0 48 10.7455 48 23.9999Z" fill="#EFB930"/>
<path d="M47.1992 24C47.1992 36.813 36.813 47.1994 23.9999 47.1994C11.1867 47.1994 0.800156 36.8131 0.800156 24C0.800156 11.1868 11.1867 0.800293 23.9999 0.800293C36.8127 0.800293 47.1992 11.1868 47.1992 24Z" fill="#045FC6"/>
<path d="M40.5326 24C40.5326 33.1308 33.1306 40.5316 23.9998 40.5316C14.8686 40.5316 7.46642 33.1308 7.46642 24C7.46642 14.8683 14.8686 7.46652 23.9998 7.46652C33.1308 7.46642 40.5326 14.8683 40.5326 24Z" fill="#EFB930"/>
<path d="M40.0324 23.9999C40.0324 32.8545 32.8533 40.0323 23.9999 40.0323C15.1454 40.0323 7.96747 32.8544 7.96747 23.9999C7.96747 15.1455 15.1454 7.96735 23.9999 7.96735C32.8535 7.96735 40.0324 15.1454 40.0324 23.9999Z" fill="white"/>
<path d="M10.2625 37.8315C10.4399 38.0008 10.8763 38.4164 10.8763 38.4164L11.2947 37.976L10.0468 36.7863L9.88625 36.9547L8.21072 38.7112L8.84689 39.3167C8.84689 39.3167 9.38419 38.7532 9.58079 38.5479C9.74508 38.7039 10.1393 39.0798 10.1393 39.0798L10.558 38.6402C10.558 38.6402 10.1643 38.2647 10.0003 38.1076C10.1044 37.9978 10.1573 37.9423 10.2625 37.8315Z" fill="#EFB930"/>
<path d="M13.2719 39.8375C13.2155 39.5006 13.0264 39.2031 12.7402 38.9997C12.4553 38.7973 12.1134 38.7175 11.7766 38.7727C11.4137 38.8344 11.0878 39.0458 10.8582 39.3672C10.6293 39.6906 10.537 40.0675 10.5985 40.4318C10.6552 40.7676 10.843 41.0633 11.1283 41.2666C11.4137 41.4696 11.7582 41.5508 12.0945 41.4943C12.4571 41.4332 12.7833 41.2213 13.0121 40.899C13.1953 40.6434 13.2908 40.3507 13.2908 40.058C13.2909 39.9851 13.2848 39.9102 13.2719 39.8375H13.2719ZM11.48 40.7705C11.1884 40.5642 11.4291 40.133 11.5989 39.8959C11.7684 39.6569 12.0969 39.2873 12.3885 39.4934C12.6928 39.7111 12.4085 40.1814 12.272 40.3724C12.135 40.5655 11.7849 40.9882 11.48 40.7705Z" fill="#EFB930"/>
<path d="M15.2333 40.5036C14.5618 40.1638 13.7851 40.4423 13.4284 41.1494C13.2496 41.5028 13.2147 41.8908 13.3298 42.2399C13.4361 42.5643 13.6667 42.829 13.9792 42.9862C14.2917 43.1453 14.6434 43.173 14.9685 43.0663C15.3174 42.9525 15.6084 42.6947 15.786 42.3414C16.1443 41.6331 15.9062 40.8434 15.2333 40.5036ZM14.4906 42.4686C14.4119 42.4944 14.3372 42.4863 14.2523 42.4441C14.1192 42.3763 14.0723 42.255 14.0723 42.1195C14.0723 41.932 14.1625 41.711 14.2389 41.5604C14.3714 41.2984 14.6404 40.8847 14.9596 41.0458C15.0438 41.0888 15.0942 41.1446 15.1197 41.2225C15.1732 41.3837 15.1195 41.6483 14.9755 41.9317C14.8324 42.2151 14.6512 42.4155 14.4906 42.4686Z" fill="#EFB930"/>
<path d="M16.6202 41.4759L16.4966 41.8302C16.4966 41.8302 16.8126 41.9411 16.9086 41.9728C16.7876 42.3187 16.23 43.9103 16.23 43.9103L17.0579 44.2006C17.0579 44.2006 17.6164 42.6104 17.7371 42.2645C17.8336 42.2982 18.1498 42.4081 18.1498 42.4081L18.3504 41.8363L16.6971 41.2563L16.6202 41.4759Z" fill="#EFB930"/>
<path d="M20.0577 42.244L18.9388 42.0078L18.891 42.2354L18.3909 44.61L19.5296 44.8514C19.8935 44.9265 20.1331 44.8372 20.2697 44.7488C20.4432 44.6356 20.5648 44.45 20.6115 44.2282C20.6244 44.1678 20.6305 44.1092 20.6305 44.0518C20.6305 43.8915 20.5797 43.7469 20.4879 43.6227C20.6161 43.5209 20.7076 43.3771 20.7457 43.1977C20.7553 43.1513 20.7611 43.099 20.7611 43.0444C20.7611 42.7404 20.5875 42.3545 20.0577 42.244H20.0577ZM19.7497 44.0569C19.7378 44.1111 19.716 44.1829 19.6749 44.2098C19.6369 44.2344 19.5639 44.2375 19.4694 44.217C19.4694 44.217 19.4264 44.2076 19.3755 44.1975C19.4118 44.0262 19.4362 43.9122 19.4716 43.7406C19.5203 43.752 19.5825 43.7642 19.5825 43.7642C19.7293 43.7952 19.7575 43.9039 19.7575 43.9828C19.7576 44.0145 19.7535 44.0413 19.7497 44.0569L19.7497 44.0569ZM19.6733 42.786C19.7715 42.8083 19.8437 42.8444 19.8715 42.8864C19.8842 42.9057 19.8905 42.9327 19.8905 42.9646C19.8905 42.9839 19.8878 43.0062 19.8828 43.0331C19.8677 43.1027 19.8473 43.1992 19.6538 43.1595C19.6538 43.1595 19.6296 43.1531 19.5964 43.1461C19.6273 43.0024 19.6419 42.9306 19.6732 42.786L19.6733 42.786Z" fill="#EFB930"/>
<path d="M22.1232 42.6308L20.9079 45.1194L21.6019 45.1726C21.6019 45.1726 21.7897 44.7762 21.8648 44.6183C22.0116 44.6305 22.1587 44.6408 22.3026 44.6524C22.3564 44.8186 22.492 45.2405 22.492 45.2405L23.4154 45.3123L22.3837 42.1143L22.1232 42.6308Z" fill="#EFB930"/>
<path d="M24.8634 44.6172C24.8481 44.2535 24.7782 42.5978 24.7782 42.5978L23.9013 42.6347L24.0122 45.2918L25.7695 45.2188L25.7431 44.5812C25.7431 44.5813 25.1154 44.6081 24.8634 44.6172Z" fill="#EFB930"/>
<path d="M27.2687 44.3626C27.2122 44.0031 26.9556 42.3662 26.9556 42.3662L26.7257 42.4031L26.0878 42.5024L26.4996 45.1306L28.2379 44.8576L28.1383 44.2271C28.1383 44.2271 27.5182 44.325 27.2687 44.3626Z" fill="#EFB930"/>
<path d="M32.3011 42.5949C32.294 42.8227 32.1597 43.0189 31.9502 43.1018C31.834 43.148 31.7232 43.148 31.6121 43.1009C31.4416 43.0279 31.2837 42.8433 31.1889 42.6061C31.0773 42.3263 31.0546 42.0886 31.1278 41.9216C31.1781 41.8046 31.2767 41.7173 31.4274 41.6569C31.5907 41.592 31.7457 41.6518 31.9581 41.7769L32.153 41.8919L32.4767 41.3814L32.2846 41.2552C31.9316 41.0233 31.4945 40.9759 31.1165 41.127C30.7656 41.2668 30.4935 41.5286 30.3498 41.8632C30.2038 42.2026 30.2038 42.591 30.3518 42.9593C30.6311 43.6575 31.4204 44.0014 32.1104 43.7251C32.6092 43.5259 32.8914 43.147 32.9274 42.6295L32.9437 42.3986L32.3085 42.3514L32.301 42.595" fill="#EFB930"/>
<path d="M34.3481 41.8691C34.1684 41.5498 33.3614 40.1022 33.3614 40.1022L33.1593 40.2162L32.5946 40.5316L33.8924 42.8535L35.4267 41.9964L35.1161 41.439C35.1162 41.439 34.567 41.7451 34.3481 41.8691Z" fill="#EFB930"/>
<path d="M36.0546 38.2881L35.8665 38.4257L35.5369 38.668L36.6139 40.136C36.6632 40.2024 36.6632 40.2469 36.6589 40.2727C36.6486 40.3484 36.5697 40.4305 36.4999 40.4808C36.467 40.5043 36.3909 40.5363 36.3129 40.524C36.2573 40.516 36.2133 40.4858 36.1743 40.433L35.1099 38.9814L34.4005 39.5007L35.4597 40.945C35.617 41.1588 35.8122 41.2852 36.04 41.32C36.2955 41.3598 36.5861 41.2728 36.8561 41.0733C37.4114 40.6672 37.4024 40.128 37.16 39.7976L36.0546 38.2881Z" fill="#EFB930"/>
<path d="M39.2863 37.7545C39.123 37.5851 38.9217 37.5089 38.7102 37.5204C38.6978 37.3561 38.6341 37.1991 38.5071 37.0677C38.2852 36.8386 37.7892 36.6602 37.3326 37.1047L36.5111 37.8991L38.3621 39.81L39.1977 39C39.4647 38.7413 39.5235 38.4907 39.526 38.3288C39.5305 38.121 39.4451 37.9176 39.2863 37.7545ZM37.888 37.6901C37.9155 37.7195 37.9493 37.7538 37.9493 37.8016C37.9493 37.8407 37.9279 37.8891 37.8638 37.9504C37.8638 37.9504 37.8465 37.968 37.823 37.9915C37.7193 37.884 37.6702 37.8335 37.565 37.7254C37.7503 37.5555 37.8273 37.6281 37.888 37.6901ZM38.3262 38.3479C38.4763 38.2031 38.6207 38.3304 38.6619 38.3736C38.7017 38.4136 38.7471 38.47 38.7471 38.5189C38.7471 38.5189 38.7471 38.5189 38.7471 38.5205C38.7462 38.5656 38.708 38.6282 38.6392 38.6949C38.6392 38.6949 38.6073 38.7259 38.5695 38.7615C38.4484 38.6363 38.3665 38.5523 38.2452 38.4278C38.2811 38.3922 38.3262 38.3479 38.3262 38.3479V38.3479Z" fill="#EFB930"/>
<path d="M10.2567 37.585C10.3291 37.6547 10.8696 38.1702 10.8696 38.1702L11.0478 37.9823L10.0521 37.0327L10.012 37.0747L8.45772 38.7051L8.84063 39.0705C8.84063 39.0705 9.50284 38.3765 9.57413 38.3005C9.64653 38.3694 10.1338 38.8334 10.1338 38.8334L10.3123 38.6461C10.3123 38.6461 9.82506 38.1824 9.75266 38.1135C9.81729 38.0459 10.1927 37.652 10.2567 37.585Z" fill="white"/>
<path d="M12.6385 39.1416C12.3917 38.9659 12.0964 38.8958 11.8064 38.9442C11.4882 38.9989 11.2027 39.1847 11.0006 39.469C10.798 39.7543 10.7167 40.085 10.7707 40.402C10.8193 40.6928 10.9827 40.9493 11.2297 41.1244C11.478 41.3011 11.7745 41.3702 12.0658 41.3214C12.3823 41.2682 12.6682 41.0816 12.8699 40.7992C13.0312 40.5714 13.1164 40.3134 13.1164 40.0578C13.1164 39.9941 13.1109 39.9296 13.1005 39.8659C13.0511 39.5756 12.8874 39.3183 12.6385 39.1416H12.6385ZM12.4138 40.4742C12.2468 40.7078 11.8121 41.2211 11.3794 40.9133C10.9482 40.6072 11.2906 40.0285 11.4569 39.7934C11.6237 39.5584 12.0586 39.046 12.4892 39.3521C12.922 39.6609 12.5807 40.2399 12.4138 40.4742Z" fill="white"/>
<path d="M15.1547 40.66C14.572 40.3654 13.897 40.6105 13.584 41.2296C13.4263 41.5409 13.3952 41.8795 13.4953 42.1866C13.5872 42.4655 13.7869 42.6936 14.0579 42.8299C14.3294 42.9688 14.6338 42.9934 14.9143 42.9011C15.2193 42.8004 15.474 42.5744 15.6316 42.2634C15.9437 41.6444 15.7389 40.9545 15.1547 40.66ZM14.1738 42.5989C13.702 42.3616 13.953 41.7375 14.0834 41.4811C14.2134 41.2235 14.5665 40.6513 15.0375 40.8908C15.163 40.9535 15.2467 41.0468 15.2866 41.1689C15.3791 41.4515 15.229 41.8167 15.131 42.0108C15.0336 42.2035 14.8278 42.5413 14.5449 42.634C14.4238 42.675 14.2986 42.6626 14.1738 42.5989Z" fill="white"/>
<path d="M16.7855 41.5331L16.7186 41.7222C16.7186 41.7222 17.0483 41.8381 17.1309 41.8672C17.0944 41.9707 16.4518 43.8031 16.4518 43.8031L16.9512 43.9786C16.9512 43.9786 17.5943 42.1463 17.6303 42.0425C17.7129 42.0713 18.0426 42.1865 18.0426 42.1865L18.1287 41.9431L16.8039 41.4781L16.7855 41.5331" fill="white"/>
<path d="M20.0224 42.4141L19.0741 42.214L19.0614 42.2715L18.5979 44.4767L19.5655 44.6799C19.8115 44.7314 20.0162 44.7057 20.1745 44.602C20.3114 44.5126 20.4033 44.3701 20.4409 44.1925C20.4505 44.1441 20.4562 44.0978 20.4562 44.0527C20.4562 43.8598 20.3606 43.6965 20.1898 43.5795C20.3876 43.5227 20.5291 43.3772 20.5747 43.1612C20.5824 43.1274 20.5871 43.0875 20.5871 43.0424C20.587 42.8218 20.471 42.5087 20.0224 42.4141H20.0224ZM19.6909 42.6093C19.8504 42.643 19.9607 42.704 20.0169 42.7908C20.0492 42.8401 20.0651 42.8977 20.0651 42.9648C20.0651 42.9975 20.0609 43.0314 20.0532 43.0683C19.9916 43.3619 19.7544 43.3588 19.618 43.329C19.618 43.329 19.4736 43.2992 19.3899 43.2816C19.4094 43.1912 19.5195 42.6677 19.5384 42.5775C19.599 42.5898 19.6909 42.6093 19.6909 42.6093ZM19.618 43.5936C19.8874 43.6503 19.9299 43.8629 19.9299 43.992C19.9299 44.0474 19.9212 44.087 19.9201 44.0936C19.893 44.221 19.8444 44.3072 19.7698 44.3553C19.6909 44.4079 19.5773 44.418 19.4336 44.3882C19.4336 44.3882 19.2612 44.3514 19.1688 44.333C19.1887 44.2382 19.3176 43.6274 19.3371 43.5343C19.4161 43.5507 19.618 43.5936 19.618 43.5936H19.618Z" fill="white"/>
<path d="M22.2804 42.7074L21.1774 44.9651L21.4951 44.9888C21.4951 44.9888 21.7286 44.4981 21.7595 44.4354C21.8266 44.4406 22.3665 44.4826 22.4328 44.4879C22.4539 44.5526 22.6223 45.076 22.6223 45.076L23.1694 45.1182L22.3502 42.5784L22.2804 42.7074ZM22.1593 43.6152C22.2126 43.7857 22.3152 44.1145 22.3492 44.2218C22.2402 44.2138 21.9893 44.1943 21.8814 44.1861C21.9309 44.0846 22.0813 43.7755 22.1593 43.6152Z" fill="white"/>
<path d="M24.6959 44.7991C24.6915 44.689 24.6105 42.7798 24.6105 42.7798L24.5541 42.7818L24.0819 42.8011L24.179 45.111L25.5881 45.0512L25.5757 44.7629C25.5759 44.763 24.7978 44.7958 24.6959 44.7992" fill="white"/>
<path d="M27.1239 44.564C27.1063 44.4551 26.8099 42.5651 26.8099 42.5651L26.7533 42.5742L26.2874 42.6479L26.6456 44.9313L28.0388 44.7114L27.9938 44.4261C27.9937 44.4263 27.2236 44.5472 27.1239 44.564" fill="white"/>
<path d="M32.4746 42.5989C32.4663 42.8997 32.2898 43.1545 32.0147 43.2654C31.8545 43.3291 31.6964 43.3269 31.5435 43.2612C31.3281 43.1701 31.14 42.9543 31.026 42.6711C30.8976 42.3477 30.8769 42.0644 30.9666 41.8527C31.0364 41.6925 31.169 41.5727 31.3629 41.4957C31.6165 41.3941 31.8494 41.51 32.0465 41.6269L32.0957 41.6557L32.2375 41.433L32.1901 41.401C31.8842 41.2007 31.5064 41.1589 31.1813 41.289C30.8732 41.4125 30.634 41.6403 30.5098 41.9319C30.3824 42.2274 30.3836 42.5703 30.5139 42.8936C30.7571 43.5036 31.4436 43.8032 32.0466 43.5629C32.4838 43.3874 32.7211 43.0703 32.7528 42.6175L32.757 42.5591L32.4779 42.5398L32.4746 42.5989" fill="white"/>
<path d="M34.2804 42.1063C34.226 42.0108 33.2938 40.3405 33.2938 40.3405L33.2425 40.3691L32.8319 40.5991L33.958 42.6157L35.189 41.9283L35.049 41.6759C35.0492 41.6761 34.3676 42.0558 34.2804 42.1063Z" fill="white"/>
<path d="M36.0165 38.5315L35.969 38.5665L35.7802 38.7051L36.7545 40.0325C36.8197 40.1218 36.8454 40.211 36.8314 40.2983C36.8082 40.4565 36.6642 40.5778 36.6038 40.621C36.5347 40.6731 36.4083 40.7162 36.2873 40.6965C36.1845 40.6813 36.1002 40.627 36.0327 40.5365L35.0709 39.2246L34.6449 39.5388L35.6004 40.8414C35.7289 41.0171 35.886 41.1207 36.0664 41.1475C36.351 41.1905 36.6181 41.032 36.7524 40.9341C37.2134 40.5951 37.2196 40.171 37.0204 39.9012L36.0165 38.5315Z" fill="white"/>
<path d="M39.1609 37.8757C38.9821 37.6907 38.7532 37.6485 38.516 37.7398C38.5347 37.6845 38.5459 37.628 38.5459 37.5716C38.5459 37.4343 38.4913 37.3004 38.3814 37.1874C38.2327 37.0345 37.8476 36.8454 37.4537 37.2284L36.7574 37.903L38.3648 39.5624L39.0766 38.8723C39.256 38.6999 39.3497 38.5141 39.3519 38.3262C39.3548 38.1621 39.2881 38.0069 39.1609 37.8757ZM38.1229 37.8036C38.1229 37.9198 38.0472 38.0153 37.9862 38.0748C37.9862 38.0748 37.8795 38.1785 37.8192 38.2379C37.7543 38.1713 37.3818 37.7875 37.318 37.7194C37.3613 37.6776 37.4293 37.6128 37.4293 37.6128C37.6468 37.4009 37.8378 37.3869 38.0131 37.5685C38.0934 37.6519 38.1229 37.7307 38.1229 37.8036ZM38.5656 39.0078C38.4998 38.9399 38.0655 38.4905 37.9988 38.4226C38.0562 38.3674 38.2049 38.2227 38.2049 38.2227C38.4886 37.9493 38.7761 38.239 38.7883 38.2525C38.8777 38.3448 38.9216 38.4321 38.9216 38.5189C38.9216 38.5205 38.9216 38.5215 38.9216 38.5223C38.9204 38.6177 38.8651 38.7176 38.7602 38.8213C38.7604 38.8213 38.6219 38.9545 38.5656 39.0078V39.0078Z" fill="white"/>
<path d="M13.3372 8.18943L12.3671 8.45106L12.4785 8.79853C12.6125 9.21981 12.4912 9.66088 12.1628 9.94887C11.9801 10.109 11.7692 10.1825 11.5365 10.1666C11.183 10.1428 10.784 9.91403 10.4695 9.55414C10.0989 9.12963 9.91403 8.72098 9.93755 8.37462C9.95391 8.12207 10.0767 7.90023 10.3123 7.69383C10.5725 7.46592 10.9025 7.4748 11.3501 7.56357L11.6822 7.6292L11.8968 6.7001L11.5626 6.61861C10.8439 6.44079 10.0945 6.61547 9.5598 7.08351C8.51265 7.99979 8.42723 9.49618 9.36117 10.5642C10.2291 11.5564 11.735 11.6646 12.7165 10.8061C13.4234 10.1886 13.6697 9.39854 13.4296 8.52376L13.3372 8.18943Z" fill="#EFB930"/>
<path d="M15.9715 3.32369L14.9806 3.79031C14.9806 3.79031 15.5337 4.96256 15.7239 5.36658C15.4412 5.49946 15.1675 5.62882 14.8846 5.76241C14.6937 5.3587 14.1402 4.18594 14.1402 4.18594L12.8355 4.8019L14.8226 9.01673L16.1284 8.40107C16.1284 8.40107 15.5127 7.09744 15.3147 6.67475C15.5976 6.54236 15.8711 6.41311 16.1546 6.27962C16.3532 6.7011 16.968 8.00493 16.968 8.00493L18.2736 7.38886L16.2871 3.17505L15.9715 3.32369Z" fill="#EFB930"/>
<path d="M20.3893 5.93486C20.3257 5.62102 20.261 5.30173 20.1982 4.98829C20.6013 4.90721 21.6725 4.69091 21.6725 4.69091L21.4841 3.75475C21.4841 3.75475 20.4124 3.97134 20.009 4.05283C19.9509 3.76585 19.9029 3.52482 19.8444 3.23824C20.263 3.15383 21.4094 2.92218 21.4094 2.92218L21.2204 1.98642L20.8775 2.05529L18.2407 2.58855L19.1625 7.15649L22.1664 6.54921L21.9777 5.61395C21.9777 5.61395 20.8108 5.84913 20.3893 5.93486Z" fill="#EFB930"/>
<path d="M24.65 1.87807L23.2054 1.84808L23.1982 2.19646L23.1079 6.5068L26.1403 6.57042L26.162 5.56114C26.162 5.56114 24.9978 5.5361 24.5724 5.52742C24.5845 4.95689 24.6499 1.87807 24.6499 1.87807" fill="#EFB930"/>
<path d="M29.3311 4.22816C28.9564 3.95289 28.8467 3.84252 28.8846 3.69216C28.9031 3.61421 28.9881 3.3653 29.2573 3.43195C29.4192 3.47355 29.5804 3.55887 29.6522 3.90745L29.7311 4.2944L30.6849 3.97208L30.6255 3.67177C30.5082 3.08196 30.0094 2.57989 29.3832 2.42348C28.9347 2.3121 28.4852 2.37168 28.1162 2.59332C27.7775 2.79619 27.5393 3.11639 27.4451 3.49536C27.2057 4.45061 27.8496 4.91056 28.2754 5.21532C28.7119 5.52744 28.8229 5.64962 28.7562 5.91035C28.7353 5.99184 28.6873 6.05616 28.6122 6.1017C28.5249 6.1531 28.4152 6.17168 28.3261 6.14845C28.0967 6.09201 27.9975 5.98366 27.9008 5.68709L27.7837 5.33154L26.8266 5.72293L26.9193 6.02678C27.0988 6.61719 27.5271 6.9893 28.2281 7.1649C29.0159 7.36201 29.9717 6.9997 30.2098 6.05374C30.4582 5.05698 29.7798 4.55755 29.3311 4.22816Z" fill="#EFB930"/>
<path d="M32.7774 6.71343C33.145 6.89923 34.1195 7.392 34.1195 7.392L34.5504 6.53995C34.5504 6.53995 33.5752 6.04718 33.2088 5.86198C33.3399 5.60065 33.4511 5.38092 33.5821 5.1201C33.9624 5.31216 35.0076 5.84038 35.0076 5.84038L35.4373 4.98832L32.725 3.61765L32.5681 3.92815L30.6225 7.77632L33.3576 9.15771L33.7889 8.30616C33.7889 8.30616 32.7261 7.76926 32.3421 7.57588C32.4858 7.28991 32.6336 6.9995 32.7774 6.71343Z" fill="#EFB930"/>
<path d="M38.1793 7.14864L33.8331 9.39752L34.6646 10.1206C34.6646 10.1206 35.3819 9.73923 35.6426 9.6023C35.8365 9.77114 36.1223 10.0197 36.313 10.1855C36.2195 10.4627 35.9538 11.2424 35.9538 11.2424L37.0993 12.239L38.9575 6.75967L38.1793 7.14864Z" fill="#EFB930"/>
<path d="M13.1743 8.47298L12.662 8.61223L12.6996 8.72816C12.8624 9.23951 12.7156 9.77439 12.3152 10.1245C12.0853 10.3262 11.8172 10.4186 11.521 10.3995C11.1011 10.3714 10.6546 10.1193 10.2942 9.70714C9.88212 9.23537 9.67784 8.76895 9.7049 8.35817C9.72612 8.04625 9.87899 7.76372 10.1593 7.51854C10.5274 7.19672 10.9908 7.2556 11.3954 7.33567L11.5066 7.35719L11.6186 6.87158L11.5073 6.84381C10.8614 6.68528 10.1912 6.84029 9.71278 7.25914C8.76621 8.08817 8.69018 9.44218 9.53657 10.4108C10.32 11.3064 11.6777 11.4046 12.5641 10.6305C13.2068 10.0668 13.4228 9.37957 13.2051 8.58559L13.1743 8.47299" fill="white"/>
<path d="M16.0704 3.53297L15.2909 3.90154C15.2909 3.90154 15.9472 5.29413 16.0335 5.4772C15.8667 5.55627 14.9407 5.9932 14.7727 6.07166C14.6865 5.88829 14.0307 4.4958 14.0307 4.4958L13.1446 4.91324L14.9334 8.70648L15.8189 8.28964C15.8189 8.28964 15.0927 6.75024 15.0052 6.56393C15.1732 6.48486 16.098 6.04904 16.2659 5.96967C16.3532 6.15547 17.0796 7.69579 17.0796 7.69579L17.964 7.27795L16.1753 3.4841L16.0704 3.53297Z" fill="white"/>
<path d="M20.2067 6.20884C20.1704 6.02658 19.9607 4.98873 19.9244 4.80646C20.1183 4.76748 21.3984 4.50878 21.3984 4.50878L21.3016 4.02954C21.3016 4.02954 20.0219 4.28713 19.8268 4.32661C19.7914 4.14788 19.6067 3.23474 19.5713 3.05621C19.7667 3.01612 21.1353 2.74055 21.1353 2.74055L21.0383 2.26111L18.5148 2.77034L19.3449 6.88176L21.8924 6.36748L21.7956 5.88804C21.7954 5.88814 20.4038 6.16896 20.2067 6.20884Z" fill="white"/>
<path d="M24.4121 2.10622L23.4339 2.08502L23.4318 2.20054L23.3452 6.27874L25.9133 6.33317L25.9248 5.7888C25.9248 5.7888 24.5345 5.75941 24.3354 5.75517C24.3404 5.53756 24.4122 2.10623 24.4122 2.10623" fill="white"/>
<path d="M29.3137 3.207C29.6247 3.28485 29.8044 3.49267 29.8805 3.86073L29.907 3.98938L30.4172 3.81691L30.3979 3.71623C30.2971 3.21366 29.8672 2.78431 29.3271 2.64849C28.9389 2.55165 28.5521 2.60244 28.2368 2.79178C27.9515 2.96324 27.7504 3.23335 27.6711 3.55194C27.4702 4.3532 27.9924 4.72642 28.4113 5.02582C28.8353 5.32905 29.0909 5.53606 28.982 5.96612C28.9388 6.14515 28.8219 6.24745 28.7317 6.30127C28.5919 6.38498 28.4205 6.41113 28.2698 6.37417C27.9605 6.29662 27.8013 6.13031 27.6805 5.75932L27.6411 5.64077L27.1116 5.85676L27.1424 5.95845C27.2963 6.46445 27.6704 6.78526 28.2861 6.93935C28.9624 7.10828 29.7821 6.80222 29.984 5.99652C30.1944 5.15204 29.6401 4.74338 29.1914 4.4154C28.8106 4.13428 28.5806 3.94636 28.6589 3.63575C28.7274 3.35806 28.9574 3.11774 29.3137 3.207" fill="white"/>
<path d="M33.4797 4.80821C33.6582 4.89798 34.9037 5.52737 34.9037 5.52737L35.1253 5.09044L32.8281 3.9299L32.7754 4.0335L30.9359 7.67386L33.2547 8.84571L33.4756 8.40898C33.4756 8.40898 32.2097 7.76888 32.0303 7.6779C32.1139 7.51169 32.5917 6.56785 32.6747 6.40154C32.8514 6.4908 34.0164 7.07951 34.0164 7.07951L34.2384 6.64257C34.2384 6.64257 33.0722 6.05438 32.8955 5.96461C32.9777 5.80244 33.3977 4.97038 33.4797 4.80821Z" fill="white"/>
<path d="M38.2862 7.35567L34.2446 9.44733L34.6962 9.84004C34.6962 9.84004 35.5533 9.38564 35.6746 9.32142C35.7752 9.40927 36.4856 10.0273 36.584 10.113C36.5412 10.2407 36.2237 11.1689 36.2237 11.1689L36.9908 11.8358L38.5524 7.23087L38.2862 7.35567ZM36.1426 9.08078C36.3337 8.98193 36.8221 8.72817 37.12 8.57317C37.0091 8.88984 36.8264 9.41129 36.7563 9.61425C36.6013 9.47854 36.2978 9.21478 36.1426 9.08078Z" fill="white"/>
<path d="M35.4659 23.3703C35.1344 22.4924 33.993 22.111 32.9141 22.5182C32.4642 22.6874 32.0958 22.9704 31.8445 23.3044C32.5569 21.2711 35.4588 20.8396 35.4588 18.948C35.4588 15.7774 30.9562 16.6655 31.6114 18.9485C31.6114 17.9127 33.2599 17.7228 33.2599 18.9485C33.2599 20.1744 30.3854 20.9782 30.3854 23.0492C30.3854 25.3322 32.6688 25.5435 32.4377 27.6315C32.3984 27.9915 32.0112 28.4645 31.4508 28.4645C27.9534 28.4645 29.2019 24.1593 27.9799 22.8492L28.0438 21.9646C28.7503 22.3978 30.6245 21.383 29.3907 19.836C29.3907 20.5967 27.8065 20.5546 27.8065 19.1173C27.8065 17.1725 29.6247 18.1873 29.7131 18.6168C29.6259 17.9085 29.593 17.4591 29.7099 17.0509C28.7298 17.367 28.6381 16.8004 28.7621 16.5812C28.904 16.3276 29.094 16.0314 29.4759 16.0314C29.6823 16.0314 29.8062 16.0602 29.8792 16.1105C30.0013 16.194 30.0905 16.0033 30.0731 16.1807C30.178 16.021 30.136 16.2204 30.2372 16.0602C30.3403 15.9012 30.4791 15.7213 30.7231 15.4817L30.7126 15.1229L30.9981 15.2276L31.2723 14.7843C30.9764 14.1708 30.5749 14.4663 30.2793 13.7057C30.032 13.6415 26.1806 14.0603 26.2923 12.524C25.9782 12.524 25.2343 12.696 25.6947 13.3216C25.3367 13.3647 25.0787 12.9582 24.5391 14.0577C25.215 13.931 24.8651 14.6866 24.8651 14.9016C24.8651 16.2947 23.0106 16.2712 23.0106 15.6186C22.5636 16.0529 22.8172 17.0026 23.4931 17.2366C23.4931 17.2366 23.2361 18.2524 22.6015 18.8965C21.6596 18.8589 20.1484 18.6952 19.2791 17.8735C18.9042 17.5193 18.6065 17.3264 18.353 17.2272V16.7668C18.7242 16.5851 19.1312 16.2636 19.5542 15.7263C19.8842 15.3233 20.0628 14.8065 20.0148 14.2577C20.0085 14.1921 19.9988 14.1274 19.9873 14.0643C19.9838 14.0442 19.9788 14.0247 19.9742 14.0047C19.9649 13.9605 19.9542 13.9181 19.9413 13.8743C19.9352 13.8532 19.9294 13.8316 19.9228 13.8107C19.9084 13.7669 19.8927 13.725 19.8756 13.6834C19.8684 13.6659 19.8634 13.6473 19.855 13.631C19.8315 13.5749 19.8052 13.5222 19.7768 13.4691C19.7647 13.4476 19.7519 13.4275 19.7401 13.4077C19.7206 13.3758 19.7021 13.3435 19.6816 13.3127C19.6651 13.2883 19.6477 13.2635 19.6302 13.2389C19.6123 13.2154 19.5933 13.1912 19.5748 13.1676C19.5543 13.1424 19.5341 13.1156 19.5122 13.0905C19.4976 13.074 19.4819 13.058 19.4665 13.0428C19.4116 12.9821 19.352 12.9257 19.2898 12.8717C19.2847 12.8673 19.2785 12.8615 19.2725 12.8569C19.2377 12.8272 19.2007 12.7988 19.1642 12.7718C19.1549 12.7647 19.1452 12.7578 19.1348 12.7506C19.0958 12.7231 19.056 12.6962 19.0144 12.6706C19.0118 12.669 19.0095 12.668 19.0077 12.6661C18.6119 12.4238 18.1335 12.297 17.6283 12.3371C16.412 12.4339 15.5078 13.4502 15.6094 14.6072C15.6884 15.5087 16.3533 16.2286 17.2177 16.4583C16.9144 16.6275 16.6582 16.7252 16.6004 16.7252C16.61 16.7313 16.6225 16.7385 16.6361 16.7473C16.6397 16.7489 16.6438 16.7514 16.648 16.7535C16.6597 16.7611 16.6737 16.7689 16.6879 16.7765C16.6915 16.7786 16.6958 16.7806 16.6992 16.7827C16.7187 16.7925 16.7388 16.8027 16.7614 16.8135C16.765 16.8151 16.7692 16.8164 16.7728 16.8182C16.7928 16.8274 16.8132 16.8372 16.8348 16.8454C16.8409 16.8482 16.8476 16.8508 16.8542 16.853C16.9072 16.8751 16.9667 16.895 17.0319 16.9136C17.0411 16.9161 17.051 16.9182 17.0589 16.9208C17.0853 16.9274 17.112 16.9336 17.1397 16.9402C17.1488 16.9418 17.1581 16.9438 17.1679 16.9458C17.2028 16.952 17.2394 16.9582 17.276 16.9627C17.2792 16.9627 17.2823 16.9643 17.2853 16.9643V17.2261C17.2716 17.2291 17.2592 17.2305 17.2463 17.2326C16.8507 17.2977 16.5936 17.4195 16.4774 17.7717C16.3619 18.1252 16.4805 18.2529 16.6658 18.5009C16.5093 18.7807 16.0991 18.8854 16.6344 19.5035C16.5954 19.737 16.6448 20.1088 16.9846 20.2216C17.0955 20.2592 17.1879 20.2792 17.2853 20.296L17.2849 24.9305C16.946 25.11 16.7788 25.334 16.6863 25.5427C16.6863 25.5427 16.4142 24.9388 16.4322 26.1352C16.7413 25.8954 16.6196 26.4129 16.6196 26.4129C16.1987 26.9581 16.7333 26.9286 16.7333 26.9286C17.0958 26.5665 17.0219 27.0926 17.0219 27.0926C17.0219 27.7344 17.2825 27.9855 17.2848 27.9865V31.5172L16.9769 31.5181L16.9798 32.4924L17.5182 32.4914C17.2161 32.6168 17.0168 32.9152 17.0458 33.245C17.0824 33.6608 17.4664 33.9697 17.9038 33.9359C18.3407 33.9008 18.6654 33.5364 18.6282 33.1196C18.6034 32.832 18.4129 32.5974 18.1538 32.4895L18.6506 32.4881L18.6485 31.5139L18.3523 31.5153L18.3527 28.3827C18.4138 28.4163 18.4798 28.4395 18.5515 28.4551C18.5801 28.4605 18.6085 28.4644 18.6377 28.4663C18.6505 28.4684 18.6638 28.4684 18.6766 28.4688C18.597 28.057 18.843 27.784 18.843 27.784C18.9693 27.5939 19.152 27.4457 19.3599 27.3411C19.9816 27.0291 20.83 27.108 21.0836 27.6158C22.6902 27.1923 24.0709 25.5774 24.0709 25.5774L24.8618 26.9234C23.185 27.484 19.5328 30.659 22.068 31.7586C22.0671 32.0787 22.0242 34.4543 20.5008 34.2656C18.307 33.9954 17.7599 34.9031 18.1811 35.9235C17.9831 36.7839 18.6457 37.0826 18.6457 37.0826C18.5463 36.5856 18.7853 36.1738 19.692 36.1791C19.6873 37.0857 20.2729 37.2492 20.2729 37.2492C20.2771 36.4728 20.8166 36.1852 21.2959 36.1873C21.2924 36.8271 22.0357 37.0703 22.0357 37.0703C22.0357 37.0703 21.8473 36.3329 22.6875 36.1873C24.8145 35.8167 22.8168 33.6292 26.0515 33.0263C26.0515 33.0263 24.4408 32.7835 24.4408 31.9029C24.4408 31.1015 25.8988 30.5535 26.4008 30.5535C27.4302 32.5204 28.5487 32.536 28.8418 32.55C29.2977 33.0592 29.1449 34.7757 28.4868 34.7419C26.0773 34.6126 26.1655 36.0782 26.4355 36.378C26.4047 36.9469 26.8473 37.2755 26.8473 37.2755C26.8473 36.6657 27.4275 36.4942 28.1716 36.5345C28.1325 37.2794 28.6071 37.3907 28.6071 37.3907C28.6201 36.641 29.1747 36.5139 29.5687 36.5345C29.54 37.0599 30.0614 37.2146 30.0614 37.2146C30.0614 37.2146 30.0101 36.5477 30.7121 36.5477C32.0438 36.5468 30.1098 33.6929 32.7089 30.8703C30.4257 31.9272 29.2111 29.2854 29.2111 28.7784C30.3845 30.1516 34.1892 30.4257 34.1892 28.08C34.1892 25.8391 31.7262 25.0041 32.8786 24.147C33.5488 23.6487 34.8668 24.6554 34.1126 25.6954C35.194 25.2947 35.7966 24.2476 35.4658 23.3702L35.4659 23.3703ZM20.8723 23.4409C20.0116 23.947 19.4345 24.5873 18.6498 24.8674C18.5306 24.9092 18.4356 24.9211 18.353 24.9158V20.5418C18.5609 20.5613 19.1005 20.6351 19.7313 20.8959C20.356 21.2368 20.356 21.9415 19.5676 22.1085C20.0659 23.0626 21.7921 22.5955 22.1684 21.8184C22.3527 21.802 22.5155 22.131 22.6687 22.442C22.4265 22.5678 21.9308 22.8178 20.8723 23.4409ZM30.5065 16.19C30.4118 16.3184 30.3185 16.4461 30.2367 16.5556C30.455 16.9184 30.8657 17.1452 31.3157 17.1036C31.9375 17.0447 32.3952 16.4928 32.3381 15.8704C32.3347 15.8477 32.3316 15.8273 32.3286 15.8052C32.2619 16.1276 31.882 16.4005 31.3989 16.4451C31.033 16.4795 30.7018 16.3744 30.5065 16.19H30.5065Z" fill="white"/>
<path d="M29.5405 15.859C29.7572 16.2218 30.1689 16.4486 30.6188 16.4067C31.2416 16.3485 31.6981 15.7963 31.6412 15.1731C31.6388 15.1511 31.6348 15.1299 31.6319 15.1079C31.5658 15.4298 31.1841 15.7035 30.702 15.7482C30.3351 15.7825 30.0044 15.6773 29.8091 15.493C29.715 15.6219 29.6206 15.7495 29.5405 15.859" fill="#F14B51"/>
<path d="M26.2082 11.1063C26.1903 11.1063 26.1722 11.1132 26.1509 11.1206C25.76 11.2031 24.5599 12.0289 24.998 12.6243C24.6384 12.6668 23.8036 12.4205 23.2651 13.5194C23.9417 13.3921 24.1674 13.9916 24.1674 14.2068C24.1674 15.0223 23.5338 15.3494 23.0073 15.3526C22.6549 15.3534 22.3527 15.2099 22.3199 14.9659C22.3214 14.9587 22.3182 14.9517 22.3199 14.9444C22.3195 14.9437 22.3128 14.9453 22.3128 14.9444H22.2984C21.8786 15.3874 22.1336 16.3107 22.7997 16.5412C22.7997 16.5412 22.5391 17.5584 21.9046 18.2025C21.2729 18.178 20.3909 18.092 19.6132 17.7944C19.3955 17.7116 19.1894 17.6076 18.9973 17.4864C18.8491 17.3946 18.7069 17.2962 18.582 17.1785C18.2073 16.8244 17.9114 16.6321 17.6583 16.5341V16.0686C18.0295 15.8866 18.4383 15.5676 18.8613 15.0303C19.1918 14.6277 19.3678 14.1116 19.3196 13.5624C19.3144 13.4967 19.304 13.4333 19.2909 13.369C19.288 13.349 19.2809 13.3317 19.2766 13.3118C19.2669 13.2675 19.2607 13.2182 19.248 13.1757C19.2422 13.154 19.234 13.1328 19.2265 13.1113C19.2126 13.0674 19.1927 13.0311 19.1764 12.9895C19.1691 12.9719 19.1693 12.9497 19.162 12.9322C19.1379 12.8773 19.1111 12.8265 19.0833 12.7747C19.0722 12.7526 19.0591 12.7314 19.0475 12.7103C19.028 12.6786 19.0033 12.648 18.983 12.6172C18.9662 12.5925 18.951 12.5701 18.9329 12.5456C18.915 12.522 18.8947 12.4966 18.8756 12.474C18.8552 12.4472 18.8404 12.4202 18.8183 12.3952C18.804 12.3786 18.7837 12.3608 18.7682 12.3451C18.7127 12.285 18.6583 12.2261 18.5963 12.1732C18.5901 12.1682 18.581 12.1633 18.5749 12.1589C18.54 12.1296 18.5049 12.0996 18.4675 12.073C18.4576 12.0665 18.4485 12.0581 18.4388 12.0515C18.3992 12.0233 18.3589 11.9987 18.3171 11.9727C18.3146 11.9716 18.3122 11.9736 18.3099 11.9727C17.9143 11.7291 17.4401 11.6038 16.9351 11.6433C16.8263 11.652 16.7163 11.6713 16.6128 11.6934C15.5614 11.9264 14.8229 12.8601 14.9157 13.9133C14.9944 14.8054 15.6405 15.5164 16.4911 15.7536C16.4998 15.756 16.5106 15.7585 16.5197 15.7607C16.2159 15.93 15.9621 16.0257 15.9039 16.0257C15.9138 16.0319 15.9259 16.045 15.9397 16.0543C15.9433 16.0559 15.95 16.0521 15.954 16.0543C15.9663 16.0614 15.9745 16.0748 15.9898 16.0829C15.9936 16.085 15.9999 16.0815 16.0042 16.0829C16.0223 16.0926 16.0394 16.1079 16.0615 16.1188C16.0655 16.1199 16.0726 16.1237 16.0758 16.1259C16.0951 16.135 16.1177 16.1381 16.1402 16.1474C16.1464 16.15 16.1479 16.152 16.1545 16.1546C16.2086 16.1759 16.2677 16.2006 16.3336 16.219C16.3427 16.2211 16.3529 16.2235 16.3622 16.2262C16.3878 16.2328 16.4133 16.2347 16.441 16.2405C16.4503 16.243 16.4598 16.2455 16.4696 16.2476C16.5045 16.2543 16.5394 16.2646 16.577 16.2691C16.5797 16.2691 16.5887 16.2673 16.5913 16.2691V16.5269C16.579 16.5287 16.5617 16.5316 16.5484 16.5341C16.1537 16.5987 15.8981 16.7255 15.7822 17.0783C15.6667 17.4318 15.7832 17.5607 15.9684 17.8087C15.8107 18.0875 15.4054 18.1926 15.9397 18.8112C15.9018 19.0441 15.9512 19.4142 16.2906 19.5272C16.4018 19.5648 16.4943 19.5815 16.5913 19.5989V24.2318C16.2521 24.4117 16.0816 24.6387 15.9898 24.8476C15.9898 24.8476 15.3412 24.7606 15.3597 25.9576C15.6686 25.7165 15.9254 25.7141 15.9254 25.7141C15.505 26.2589 15.8037 26.7595 15.8037 26.7595C16.1661 26.3965 16.3264 26.3944 16.3264 26.3944C16.3264 27.0387 16.5913 27.2894 16.5913 27.2894C16.5913 27.1923 16.5964 27.1042 16.6128 27.0173C16.5964 27.1042 16.5913 27.1923 16.5913 27.2894V30.8197H16.2834V31.2708V31.7935H16.8205C16.7548 31.821 16.6955 31.8579 16.6415 31.9009C16.4555 32.0425 16.3411 32.2612 16.3479 32.5024V32.5454C16.3848 32.9621 16.7693 33.2759 17.2072 33.24C17.6437 33.2058 17.9664 32.8394 17.9304 32.4237C17.9049 32.1373 17.7169 31.9014 17.4578 31.7935H17.9519V30.8197H17.6583V27.6833C17.7199 27.7152 17.7815 27.741 17.8516 27.7549C17.8817 27.7618 17.9155 27.7659 17.9447 27.7692C17.9576 27.7694 17.9677 27.7687 17.9805 27.7692C17.9009 27.3576 18.1452 27.0889 18.1452 27.0889C18.2726 26.8984 18.4538 26.7498 18.6608 26.645C19.2833 26.3329 20.133 26.4095 20.3865 26.9171C21.9933 26.4942 23.3725 24.8834 23.3725 24.8834L24.1674 26.2225C22.4902 26.7838 18.8396 29.9626 21.3747 31.0631C21.3736 31.3822 21.3291 33.7561 19.8065 33.5694C17.6132 33.2979 17.0655 34.2031 17.4864 35.2235C17.2877 36.0849 17.9519 36.3835 17.9519 36.3835C17.8528 35.8871 18.0909 35.4769 18.9973 35.4813C18.9925 36.3878 19.5774 36.5554 19.5774 36.5554C19.5805 35.778 20.1214 35.4856 20.6013 35.4884C20.5982 36.1282 21.3389 36.3764 21.3389 36.3764C21.3389 36.3764 21.1494 35.6341 21.9905 35.4884C24.1168 35.1179 22.1212 32.9343 25.356 32.3306C25.356 32.3306 23.7449 32.0878 23.7449 31.2063C23.7449 30.4062 25.1986 29.8601 25.6998 29.8601C25.7002 29.8613 25.7064 29.859 25.7069 29.8601C26.7363 31.8183 27.8564 31.8358 28.1487 31.8508C28.6043 32.359 28.4489 34.0765 27.7907 34.042C25.3812 33.9136 25.4656 35.382 25.7356 35.6818C25.7056 36.2516 26.1509 36.5769 26.1509 36.5769C26.1509 35.9667 26.7315 35.8 27.4756 35.8393C27.4356 36.5835 27.9124 36.6914 27.9124 36.6914C27.9235 35.9417 28.4773 35.8185 28.8719 35.8393C28.8444 36.3659 29.366 36.5196 29.366 36.5196C29.366 36.5196 29.3161 35.8544 30.0177 35.8536C31.3499 35.8536 29.4149 32.9976 32.0155 30.1752C29.7325 31.2325 28.5139 28.5914 28.5139 28.0843C29.6876 29.458 33.4978 29.7276 33.4978 27.3825C33.4978 25.4904 31.7412 24.5993 31.8866 23.8523C31.9133 23.7151 32.0016 23.5848 32.1802 23.4513C32.8513 22.9525 34.1693 23.9597 33.419 24.998C34.4994 24.5972 35.102 23.548 34.7724 22.6708C34.4398 21.7929 33.2941 21.4116 32.216 21.8187C31.7643 21.9891 31.4 22.2717 31.149 22.6063C31.8602 20.5732 34.7652 20.1451 34.7652 18.2526C34.7652 15.082 30.2576 15.9696 30.9127 18.2526C30.9127 18.2183 30.9157 18.1854 30.9199 18.1524C30.9263 18.0932 30.9388 18.0405 30.9557 17.9877C31.209 17.1963 32.5669 17.1405 32.5669 18.2526C32.5669 19.4785 29.6882 20.2839 29.6882 22.3557C29.6882 24.6387 31.9743 24.8442 31.7434 26.9314C31.7043 27.2927 31.3156 27.7692 30.7552 27.7692C29.5535 27.7692 28.9089 27.2583 28.5354 26.5376C27.8228 25.1609 28.0846 23.0144 27.2823 22.1552L27.3467 21.2673C28.0535 21.701 29.9316 20.6875 28.7001 19.1406C28.7001 19.9021 27.1104 19.8541 27.1104 18.4173C27.1104 16.4725 28.9268 17.4942 29.0151 17.9232C28.9279 17.2154 28.8957 16.7617 29.0151 16.3551C28.0339 16.6702 27.9407 16.1023 28.0628 15.8824C28.2064 15.6284 28.3976 15.3311 28.7788 15.3311C29.3299 15.3311 29.2948 15.533 29.2658 15.818C29.4762 15.4997 29.5351 15.2658 30.0248 14.7869L30.0177 14.4288L30.3041 14.5291L30.5762 14.0851C30.2807 13.4717 29.8777 13.7722 29.5809 13.011C29.3347 12.9464 26.0961 12.6431 26.2082 11.1063ZM25.4993 12.2878C25.5118 12.369 25.5388 12.4515 25.5852 12.5241C25.5388 12.4515 25.5118 12.369 25.4993 12.2878ZM17.0711 13.2115C17.3729 13.1874 17.6397 13.4029 17.6655 13.6913C17.6905 13.9783 17.4665 14.233 17.1642 14.257C16.8613 14.2813 16.594 14.0653 16.5699 13.7772C16.5632 13.7008 16.5728 13.6304 16.5985 13.5624C16.5985 13.5608 16.5978 13.5558 16.5985 13.5552C16.6014 13.5449 16.6095 13.5367 16.6128 13.5266C16.6919 13.3572 16.8633 13.2283 17.0711 13.2115ZM24.4108 13.5123C24.447 13.5726 24.4733 13.6417 24.4968 13.7128C24.4733 13.6417 24.447 13.5726 24.4108 13.5123ZM22.2984 15.3168C22.3172 15.428 22.358 15.5269 22.413 15.6175C22.3581 15.5268 22.317 15.4281 22.2984 15.3168ZM23.4871 16.8062C23.409 17.0176 23.2989 17.2716 23.1792 17.5294C23.2989 17.2716 23.409 17.0176 23.4871 16.8062ZM31.5357 17.2716C31.4051 17.3416 31.2822 17.4344 31.1849 17.5437C31.2829 17.4326 31.4033 17.3424 31.5357 17.2716ZM33.061 17.4435C33.1106 17.4982 33.1517 17.5611 33.1899 17.6297C33.1517 17.5611 33.1106 17.4982 33.061 17.4435ZM17.6583 19.8423C17.8662 19.8623 18.4033 19.9405 19.0331 20.2003C19.0404 20.2039 19.0484 20.2034 19.0546 20.2075C19.6603 20.5529 19.6482 21.2467 18.8685 21.4105C19.3659 22.3655 21.0988 21.9012 21.4749 21.1241C21.6583 21.1077 21.8155 21.4366 21.969 21.7471C21.7272 21.8731 21.2368 22.1193 20.1789 22.7424C19.318 23.2491 18.7368 23.8878 17.9519 24.1674C17.8323 24.2107 17.7403 24.222 17.6583 24.2175V19.8423ZM22.5347 19.8924C22.4994 19.9923 22.4532 20.0867 22.3915 20.1717C22.4532 20.0867 22.4994 19.9923 22.5347 19.8924ZM18.1524 24.6471C18.0517 24.6674 17.9658 24.6829 17.8874 24.6829C17.9658 24.6829 18.0517 24.6674 18.1524 24.6471ZM16.2691 24.8978C16.2472 24.9136 16.2276 24.9369 16.2118 24.9551C16.2293 24.9338 16.2433 24.9159 16.2691 24.8978ZM15.639 25.4062C15.5597 25.4954 15.4877 25.5888 15.4385 25.6854C15.487 25.5902 15.5612 25.4944 15.639 25.4062ZM32.5669 26.8312C32.5707 26.8912 32.574 26.9544 32.574 27.0173C32.574 27.0484 32.5661 27.0931 32.5597 27.1462C32.5661 27.0931 32.5669 27.0484 32.5669 27.0173C32.5669 26.952 32.571 26.8934 32.5669 26.8312H32.5669ZM32.3234 27.7692C32.2957 27.8079 32.2644 27.8466 32.2303 27.8838C32.263 27.8478 32.2966 27.8066 32.3234 27.7692ZM16.8133 31.8651C16.8471 31.8651 16.8818 31.8729 16.9136 31.8794C16.8818 31.8729 16.8471 31.8723 16.8133 31.8723C16.7831 31.8723 16.7558 31.8739 16.7274 31.8794C16.7558 31.8738 16.7832 31.8651 16.8133 31.8651Z" fill="#045FC6"/>
<path d="M28.0284 13.759L28.4195 13.7796L28.2238 14.048C28.2237 14.048 27.9625 14.1306 28.0284 13.759ZM27.0954 13.759H27.6589C27.6589 13.759 27.6386 14.2137 28.05 14.2544L27.9626 14.3992C27.9625 14.3992 26.8569 14.1102 27.0954 13.759Z" fill="white"/>
<path d="M17.4179 17.6436C17.4374 17.5703 16.7539 17.1704 16.3821 17.0731C16.2254 17.0325 16.1048 17.2208 16.0853 17.2943C16.0663 17.3681 16.0791 17.5915 16.2352 17.6325C16.6073 17.7299 17.3989 17.7171 17.4179 17.6436V17.6436ZM17.3618 18.3258C17.3676 18.2566 16.6859 18.0114 16.3342 17.985C16.187 17.9742 16.1094 18.1647 16.1048 18.2333C16.0998 18.3033 16.1484 18.5024 16.2958 18.5128C16.6469 18.5389 17.3574 18.3962 17.3618 18.3258ZM16.5879 16.2687V16.53C16.6878 16.6301 17.0524 16.7475 17.094 16.7475V16.23C17.0941 16.2301 16.8199 16.2876 16.5879 16.2687ZM16.4452 18.8181C16.3384 18.8223 16.2983 18.9639 16.301 19.0148C16.3019 19.0651 16.3528 19.2041 16.4596 19.2C16.7136 19.1909 17.2115 19.0311 17.2095 18.9813C17.2074 18.9313 16.6992 18.8093 16.4452 18.8181ZM15.9221 25.7168C15.5017 26.2616 15.8045 26.7585 15.8045 26.7585C15.8045 26.3791 16.2373 25.8908 16.3338 25.7955C16.3338 25.7956 16.1856 25.7168 15.9221 25.7168ZM17.2633 26.8726C17.1987 27.2087 17.3659 27.5359 17.6554 27.6864C17.717 27.7183 17.7838 27.7435 17.854 27.7574C17.8841 27.7642 17.9123 27.7679 17.9415 27.7712C17.9543 27.7714 17.9672 27.7717 17.98 27.7721C17.98 27.7721 17.5543 27.3736 17.7255 26.9968C17.6144 26.9206 17.4487 26.8725 17.2633 26.8725V26.8726ZM16.4939 15.7538C15.8565 15.4427 15.4032 14.663 15.4032 13.7489C15.4032 12.7788 15.9128 11.959 16.6131 11.6906C15.5617 11.9235 14.82 12.8579 14.9128 13.9111C14.9915 14.8032 15.6433 15.5166 16.4939 15.7538ZM23.2619 13.5162C23.9384 13.3889 24.168 13.9904 24.168 14.2057C24.168 15.0212 23.5328 15.3498 23.0063 15.3529V15.3534C25.4486 15.3534 24.5879 12.1906 23.2619 13.5163V13.5162ZM21.6295 20.5346C22.7967 20.5346 22.7182 19.0102 22.4658 18.7575C22.8403 18.3833 23.611 16.6664 23.611 16.3492C23.611 16.3492 22.0705 16.017 22.3164 14.9479C22.316 14.9472 22.316 14.9468 22.316 14.9458L22.2954 14.9421C21.8755 15.3851 22.1308 16.3091 22.7968 16.5396C22.7968 16.5396 22.5397 17.5554 21.9052 18.1996C21.2735 18.175 20.388 18.0919 19.6103 17.7942C20.8125 18.4323 22.0505 19.3967 21.6295 20.5347L21.6295 20.5346ZM17.0698 13.215C17.3716 13.1909 17.6374 13.4049 17.6632 13.6933C17.6882 13.9802 17.4634 14.2339 17.1611 14.2578C16.8582 14.2822 16.5919 14.0682 16.5678 13.7801C16.5678 14.2266 16.9303 14.5895 17.3777 14.5895C17.3844 14.5895 17.391 14.5891 17.3978 14.5891C17.4379 14.7871 17.4516 14.9975 17.387 15.1516C17.8239 14.7716 18.1874 14.2963 18.1874 13.78C18.1874 13.3324 17.8239 12.9696 17.3777 12.9696C17.0051 12.9696 16.6931 13.2205 16.5977 13.5614C16.6684 13.374 16.8476 13.2329 17.0698 13.215L17.0698 13.215ZM25.6714 12.6257C25.1436 12.097 25.9237 11.1088 26.2102 11.1088C25.8968 11.1088 24.5377 11.9986 24.9991 12.6257C25.2537 12.6257 25.6714 12.6257 25.6714 12.6257ZM18.8711 21.4113C19.2897 21.5399 19.7107 21.3831 19.8087 21.0614C19.9068 20.7391 19.6456 20.3751 19.2261 20.2461C19.1682 20.2288 19.1098 20.2164 19.0522 20.2094C19.6579 20.5547 19.6508 21.2475 18.8711 21.4113ZM17.6565 16.9626C17.6565 16.9626 18.2565 17.1525 18.9947 17.4897C18.8464 17.3978 18.7074 17.2942 18.5825 17.1766C18.2077 16.8225 17.9097 16.6295 17.6565 16.5314V16.9626ZM17.8841 24.6801C19.1386 24.6801 23.4759 21.9108 23.4759 21.9108C22.4046 21.9108 21.9719 21.7451 21.9719 21.7451C21.7301 21.8712 21.2337 22.1202 20.1758 22.7433C19.315 23.25 18.738 23.8907 17.9531 24.1703C17.8335 24.2137 17.7385 24.2237 17.6565 24.2192C17.4759 24.2036 17.2771 24.1791 17.094 24.1682V20.1855C17.094 19.7679 16.789 19.6 16.5879 19.6V24.2348C16.2486 24.4146 16.0817 24.6381 15.9899 24.847C15.9899 24.847 15.3431 24.7607 15.3616 25.9577C15.3616 25.6403 15.8326 25.0851 16.1593 25.0851C16.1593 24.6801 17.3481 24.6801 17.8841 24.6801ZM28.7031 31.0917C28.3854 31.0917 26.9275 31.1534 26.7965 29.8835C26.4743 29.8143 26.0982 29.8004 25.7031 29.8565C26.7338 31.8236 27.8527 31.8393 28.1454 31.8544C28.601 32.3626 28.4483 34.0788 27.7901 34.0443C25.3807 33.9159 25.4691 35.3818 25.739 35.6816C25.739 34.5763 26.4904 34.3143 28.3884 34.3143C28.3885 34.3143 29.94 32.3286 28.7031 31.0917ZM29.1986 35.8379H28.8724C28.8449 36.3645 29.3661 36.5195 29.3661 36.5195C29.1986 36.3521 29.0765 35.9611 29.1986 35.8379ZM26.1497 36.5793C26.011 36.4405 25.8968 35.8841 26.0982 35.6816H25.7389C25.7089 36.2514 26.1497 36.5793 26.1497 36.5793ZM33.342 18.2788C33.342 16.5961 31.0343 16.8604 30.9204 18.1525C31.0221 17.2055 32.564 17.0657 32.564 18.252C32.564 19.4779 29.6884 20.281 29.6884 22.3528C29.6884 24.6358 31.9712 24.8471 31.7403 26.9343C31.7012 27.2956 31.3141 27.7678 30.7536 27.7678C29.5519 27.7678 28.9087 27.2577 28.5352 26.537C28.9172 27.5573 29.5895 28.3395 30.9886 28.3395C32.4384 28.3395 32.5699 27.2679 32.5699 27.019C32.5699 24.9293 30.3874 24.4325 30.3874 22.4464C30.3876 20.5126 33.342 19.716 33.342 18.2788ZM16.325 26.3971C16.325 27.0414 16.5879 27.2914 16.5879 27.2914C16.5879 26.9029 16.7475 26.5745 16.8388 26.4839C16.7039 26.3481 16.325 26.3971 16.325 26.3971ZM33 22.8357C32.4142 22.8357 31.9346 23.2839 31.8841 23.8558C31.9108 23.7186 32.0022 23.5852 32.1809 23.4517C32.852 22.9528 34.1673 23.9576 33.417 24.9959C33.8294 24.8303 34.1191 24.4279 34.1191 23.9564C34.1194 23.338 33.6183 22.8357 33 22.8357ZM27.8663 35.8379H27.475C27.435 36.5821 27.9112 36.6941 27.9112 36.6941C27.7092 36.4927 27.6754 36.0286 27.8663 35.8379ZM16.8126 31.8688C16.7521 31.8688 16.6957 31.8812 16.6419 31.9017C16.4559 32.0433 16.3425 32.2632 16.3492 32.5045C16.4112 32.7029 16.594 32.8463 16.8126 32.8463C17.0826 32.8463 17.3013 32.6275 17.3013 32.3577C17.3013 32.0875 17.0826 31.8688 16.8126 31.8688ZM19.5614 35.4827H18.9958C18.9909 36.3892 19.5772 36.5536 19.5772 36.5536C19.4119 36.3872 19.2021 35.8418 19.5613 35.4827H19.5614ZM21.3152 29.7503C21.3152 27.6769 26.2809 27.4335 26.2809 25.7254C26.2809 25.0298 25.6804 24.7156 25.2535 24.7156C25.3743 24.8367 26.0202 26.2255 24.1655 26.2255C22.4884 26.7869 18.8362 29.9615 21.3713 31.0621C21.3701 31.3812 21.3272 33.757 19.8046 33.5703C17.6113 33.2988 17.0641 34.2055 17.485 35.2259C17.485 33.6777 18.5723 33.9653 19.9921 33.9653C20.88 33.9653 22.1781 32.8424 22.1781 30.9519C22.1781 30.9519 21.3152 30.6208 21.3152 29.7503ZM17.0941 31.021V26.8577C16.8126 26.8577 16.588 27.2916 16.588 27.2916V30.8436V30.8208L16.2804 30.8217L16.283 31.2702C16.5196 31.2701 17.0941 31.148 17.0941 31.0209L17.0941 31.021ZM17.9487 36.3857C17.9487 36.3857 17.5098 35.6961 17.9801 35.2259H17.4851C17.2864 36.0874 17.9487 36.3857 17.9487 36.3857ZM21.0099 35.4917C21.0099 35.4917 20.7735 35.4917 20.5994 35.4917C20.5963 36.1315 21.3396 36.3737 21.3396 36.3737C21.0776 36.113 20.8982 35.6017 21.0099 35.4917Z" fill="#8C99C6"/>
<path d="M7.20216 28.5796L7.1748 28.4956L7.16309 28.4081C7.123 28.1087 7.0506 27.551 6.62003 27.4513C6.50491 27.4245 6.38596 27.4383 6.25903 27.4905C6.29356 27.358 6.28952 27.238 6.24792 27.1281C6.08918 26.7153 5.52724 26.7205 5.22531 26.7244H5.13655L5.04911 26.7083C4.75253 26.6537 4.19928 26.5504 3.97228 26.9292C3.91128 27.0304 3.88705 27.1475 3.89745 27.284C3.78254 27.2098 3.66672 27.1766 3.54989 27.1823C3.10801 27.2058 2.93907 27.742 2.84869 28.0306L2.82113 28.1144L2.78013 28.1923C2.63533 28.4581 2.36683 28.951 2.65684 29.2848C2.73429 29.374 2.8385 29.4338 2.97159 29.4653C2.86637 29.5524 2.79841 29.6521 2.76872 29.7661C2.6533 30.1924 3.11154 30.5185 3.35692 30.6932L3.42892 30.7463L3.49091 30.809C3.69883 31.029 4.08517 31.4362 4.49201 31.2638C4.59965 31.2175 4.68892 31.1372 4.76041 31.0205C4.8113 31.1478 4.88451 31.2421 4.98317 31.3071C5.35376 31.5471 5.80503 31.2127 6.04778 31.0342L6.11957 30.9816L6.19925 30.9425C6.47189 30.8119 6.97981 30.5709 6.94143 30.1305C6.93124 30.0124 6.88186 29.9039 6.7935 29.8C6.92952 29.792 7.04201 29.7508 7.13329 29.6767C7.47743 29.3987 7.29829 28.8661 7.20216 28.5796" fill="white"/>
<path d="M5.2664 28.9368C7.73854 30.3979 6.97717 28.7912 6.92284 28.5535C6.86812 28.3168 6.84731 26.5394 5.2664 28.9368Z" fill="#F14B51"/>
<path d="M5.11101 29.3025C4.48535 32.1041 5.77817 30.8844 5.98669 30.7602C6.19511 30.6349 7.87901 30.0654 5.11101 29.3025Z" fill="#F14B51"/>
<path d="M4.71406 29.2686C1.85517 29.5384 3.41558 30.3916 3.59886 30.5509C3.78264 30.7097 4.84361 32.1361 4.71406 29.2686Z" fill="#F14B51"/>
<path d="M4.62438 28.8795C3.48333 26.2445 3.15424 27.9918 3.05922 28.2163C2.9642 28.4388 1.93554 29.8896 4.62438 28.8795Z" fill="#F14B51"/>
<path d="M45.459 28.1925L45.4182 28.1146L45.3902 28.0308C45.2998 27.7421 45.1309 27.206 44.6902 27.1824C44.5721 27.1768 44.4569 27.2097 44.342 27.2831C44.3525 27.1476 44.3268 27.0305 44.2674 26.9293C44.0394 26.5503 43.487 26.6537 43.1904 26.7083L43.1021 26.7244H43.0137C42.7129 26.7205 42.1504 26.7153 41.9923 27.1281C41.9493 27.238 41.9462 27.3581 41.9799 27.4905C41.8549 27.4384 41.7357 27.4248 41.6198 27.4514C41.1896 27.5509 41.1157 28.1087 41.0777 28.4081L41.0644 28.4957L41.0378 28.5797C40.9411 28.8661 40.7626 29.3987 41.1066 29.677C41.1979 29.7509 41.3096 29.7922 41.4464 29.8003C41.3581 29.9042 41.3088 30.0128 41.2985 30.1308C41.2604 30.5712 41.7675 30.8122 42.0407 30.9428L42.1195 30.9819L42.1913 31.0345C42.4349 31.2132 42.8866 31.5474 43.256 31.3074C43.3559 31.2424 43.4285 31.1481 43.4788 31.0208C43.5508 31.1375 43.6392 31.2178 43.7478 31.2642C44.1545 31.4365 44.5412 31.0293 44.7489 30.8093L44.8114 30.7467L44.8824 30.6935C45.1286 30.5189 45.5865 30.1927 45.4715 29.7665C45.4407 29.6522 45.3741 29.5527 45.2681 29.4656C45.4007 29.434 45.5052 29.3743 45.5823 29.2851C45.8728 28.9512 45.6047 28.4584 45.459 28.1925" fill="white"/>
<path d="M43.2735 28.6752C41.1207 26.7759 42.8834 27.0026 43.1258 26.9813C43.367 26.961 45.0648 26.4308 43.2735 28.6752Z" fill="#F14B51"/>
<path d="M42.9738 28.9368C40.5017 30.3979 41.2615 28.7912 41.317 28.5535C41.3712 28.3168 41.3917 26.5394 42.9738 28.9368Z" fill="#F14B51"/>
<path d="M43.1286 29.3025C43.7546 32.1041 42.4617 30.8844 42.2527 30.7602C42.0445 30.6349 40.3612 30.0654 43.1286 29.3025Z" fill="#F14B51"/>
<path d="M43.5251 29.2686C46.3841 29.5384 44.8248 30.3916 44.6408 30.5509C44.4581 30.7097 43.3956 32.1361 43.5251 29.2686Z" fill="#F14B51"/>
<path d="M43.6141 28.8795C44.7559 26.2445 45.0843 27.9918 45.1797 28.2163C45.2742 28.4388 46.3029 29.8896 43.6141 28.8795Z" fill="#F14B51"/>
<path d="M44.1695 28.9617C44.1668 28.9388 44.1594 28.9183 44.1563 28.8961C44.3858 28.7274 44.6338 28.5468 44.6338 28.5468L44.61 28.4934C44.61 28.4934 44.3207 28.5438 44.0432 28.5922C43.9039 28.364 43.6665 28.2092 43.3947 28.1827C43.3084 27.9232 43.2221 27.6589 43.2221 27.6589L43.164 27.6638C43.164 27.6638 43.1249 27.9393 43.0855 28.2091C42.9185 28.2542 42.7685 28.3488 42.6545 28.4841C42.5937 28.557 42.5498 28.6395 42.5149 28.7256C42.2354 28.7256 41.94 28.7265 41.94 28.7265L41.9276 28.7841C41.9276 28.7841 42.203 28.9183 42.4573 29.0428C42.4582 29.066 42.4553 29.0889 42.4573 29.1124C42.4768 29.3364 42.5817 29.5376 42.751 29.6843C42.6616 29.9636 42.561 30.2757 42.561 30.2757L42.6103 30.3055C42.6103 30.3055 42.8423 30.0653 43.0487 29.8532C43.1566 29.8887 43.2714 29.9026 43.3874 29.8923C43.5044 29.8834 43.6152 29.8484 43.7158 29.7962C43.9552 29.9686 44.2252 30.1639 44.2252 30.1639L44.2695 30.1258C44.2695 30.1258 44.1164 29.8365 43.98 29.5775C44.1214 29.4028 44.1881 29.1852 44.1695 28.9616" fill="white"/>
<path d="M43.2692 28.5316C43.1337 28.5421 43.0116 28.6061 42.9244 28.7108C42.8373 28.8146 42.7951 28.9458 42.8075 29.0806C42.8311 29.3597 43.0783 29.5672 43.3566 29.5426C43.4932 29.5301 43.6142 29.4664 43.7026 29.363C43.7889 29.2583 43.8309 29.1279 43.8195 28.9922C43.7952 28.713 43.5477 28.5063 43.2692 28.5316Z" fill="#F14B51"/>
<path d="M4.9661 28.6752C7.11966 26.7759 5.35588 27.0026 5.11424 26.9813C4.87179 26.961 3.17435 26.4308 4.9661 28.6752Z" fill="#F14B51"/>
<path d="M5.7814 29.0428C6.03758 28.9184 6.31164 28.784 6.31164 28.784L6.29881 28.7264C6.29881 28.7264 6.00405 28.7255 5.72384 28.7255C5.68991 28.6394 5.64578 28.5568 5.58469 28.484C5.47079 28.3487 5.32094 28.2543 5.15351 28.209C5.11514 27.939 5.07606 27.6638 5.07606 27.6638L5.01689 27.6588C5.01689 27.6588 4.93116 27.923 4.84614 28.1827C4.57259 28.2092 4.33489 28.364 4.19584 28.5922C3.91946 28.5438 3.62844 28.4933 3.62844 28.4933L3.60603 28.5467C3.60603 28.5467 3.85343 28.7274 4.08285 28.896C4.07912 28.9183 4.07245 28.9388 4.07002 28.9616C4.05105 29.1863 4.1192 29.4027 4.26047 29.5774C4.12294 29.8362 3.96985 30.1257 3.96985 30.1257L4.01519 30.1638C4.01519 30.1638 4.2847 29.9685 4.52392 29.7961C4.62449 29.8487 4.73527 29.8824 4.85189 29.8923C4.96883 29.9028 5.08334 29.8886 5.19118 29.8532C5.39708 30.0653 5.62872 30.3055 5.62872 30.3055L5.67951 30.2757C5.67951 30.2757 5.57874 29.9634 5.48887 29.6851C5.6578 29.5373 5.76262 29.3362 5.78251 29.1121C5.78494 29.0889 5.78136 29.0661 5.78136 29.0428" fill="white"/>
<path d="M5.31539 28.7109C5.22794 28.6061 5.10646 28.5419 4.97034 28.5316C4.69215 28.5064 4.44465 28.7131 4.42042 28.9924C4.40892 29.1281 4.45081 29.2585 4.53715 29.3632C4.62439 29.4666 4.74708 29.5303 4.8825 29.5427C5.16069 29.5674 5.40808 29.3597 5.43222 29.0807C5.44363 28.9458 5.40203 28.8147 5.31539 28.7109Z" fill="#F14B51"/>
<path d="M5.28085 16.728C4.07729 16.5155 2.92483 17.3234 2.71217 18.527C2.49982 19.7313 3.30683 20.8837 4.51049 21.0962C5.71516 21.3087 6.86813 20.5012 7.08008 19.297C7.29314 18.0933 6.48562 16.9409 5.28085 16.728Z" fill="white"/>
<path d="M5.78291 18.4055C5.76343 18.3936 5.72949 18.3716 5.6884 18.3444C5.50653 18.2238 5.14998 17.9881 5.14019 17.981C5.0908 17.9471 5.04274 17.9147 4.99538 17.8828C4.83685 17.7766 4.69507 17.6842 4.56178 17.6073C4.51038 17.5781 4.4607 17.5508 4.41072 17.5264C4.19876 17.4194 3.9956 17.3548 3.75578 17.3337C3.57088 17.4672 3.41043 17.6325 3.28047 17.8236C3.83191 18.0227 4.37033 18.3416 5.49139 19.0379C5.55551 18.8897 5.77008 18.4333 5.78291 18.4055Z" fill="#F14B51"/>
<path d="M5.266 19.5942C5.28841 19.5384 5.38697 19.2889 5.42726 19.1929C4.27844 18.4793 3.74497 18.1635 3.19232 17.9681C3.10659 18.122 3.04236 18.29 3.00046 18.4687C3.31591 18.9018 4.1613 19.3273 5.266 19.5942Z" fill="#F14B51"/>
<path d="M5.1416 17.7807C5.57176 17.5262 6.0605 17.5955 6.43775 17.7243C6.29709 17.5426 6.12674 17.3839 5.92862 17.2603C5.57227 17.1894 5.0801 17.1783 4.68831 17.4897C4.83079 17.5734 4.97791 17.671 5.1416 17.7807Z" fill="#F14B51"/>
<path d="M3.42517 19.8361C3.48273 19.8755 3.5417 19.9131 3.60441 19.9484C3.73103 20.0183 3.86816 20.0788 4.00984 20.1306C4.06992 20.1533 4.13101 20.1744 4.1926 20.1943C4.40809 20.2652 4.90258 20.3937 4.93944 20.4022C4.94702 20.3833 5.13231 19.925 5.20259 19.7509C4.34609 19.5385 3.40821 19.1667 2.96259 18.6832C2.93583 18.9065 2.94623 19.1273 2.99339 19.3367C3.0874 19.5415 3.23836 19.7047 3.42517 19.8361Z" fill="#F14B51"/>
<path d="M4.96832 20.5812L4.78959 20.5352C4.62389 20.4931 4.44425 20.4459 4.26158 20.3899C4.35064 20.5797 4.4908 20.7276 4.64025 20.8421C4.84049 20.8687 5.0381 20.8637 5.22804 20.8308C5.09081 20.7241 4.96832 20.5812 4.96832 20.5812" fill="#F14B51"/>
<path d="M6.75967 18.3466C6.71897 18.2136 6.66556 18.0848 6.59841 17.9647C6.26073 17.8141 5.74645 17.667 5.2973 17.8867L5.9168 18.2958C6.04595 18.2843 6.1648 18.2807 6.27356 18.2834C6.33293 18.2843 6.38807 18.2875 6.44078 18.2927C6.56205 18.3034 6.66556 18.3229 6.75967 18.3466" fill="#F14B51"/>
<path d="M6.4425 18.4599C6.42442 19.4779 5.94448 20.2631 5.53087 20.7544C6.17824 20.5294 6.68878 19.9715 6.81612 19.2508C6.85974 19.0045 6.85207 18.7623 6.80643 18.5318C6.70585 18.5005 6.58559 18.4743 6.4425 18.4599" fill="#F14B51"/>
<path d="M4.53361 17.4035C4.82352 17.1479 5.16593 17.0616 5.48169 17.0545C5.40151 17.0289 5.31982 17.0068 5.2347 16.9923C4.78444 16.9128 4.34397 16.9966 3.96985 17.1992C4.16908 17.2382 4.34912 17.3081 4.53361 17.4035Z" fill="#F14B51"/>
<path d="M5.94044 18.4609C5.79311 18.7678 5.70647 18.9557 5.63457 19.1267C5.61246 19.1785 5.59095 19.2288 5.56924 19.2811C5.53491 19.3668 5.42908 19.6333 5.42908 19.6333L5.36597 19.7897L5.09242 20.4674C5.16785 20.5674 5.25924 20.649 5.34911 20.7127C5.75555 20.2491 6.26134 19.47 6.2768 18.4501C6.1745 18.4465 6.06201 18.4502 5.94044 18.4609" fill="#F14B51"/>
<path d="M4.05659 20.3225C3.92017 20.2756 3.78395 20.222 3.6553 20.1593C3.70337 20.3078 3.77264 20.4396 3.84241 20.5526C3.98833 20.6463 4.14848 20.7201 4.31943 20.7728C4.20866 20.648 4.11304 20.5003 4.05659 20.3225Z" fill="#F14B51"/>
<path d="M3.45455 20.0497C3.36206 19.9942 3.27602 19.9325 3.19635 19.8648C3.28652 20.026 3.40012 20.1739 3.5319 20.3035C3.5006 20.2226 3.47313 20.1389 3.45455 20.0497Z" fill="#F14B51"/>
<path d="M40.9191 19.2971C41.1319 20.5012 42.2839 21.3088 43.4879 21.0963C44.6922 20.8839 45.499 19.7314 45.2875 18.527C45.075 17.3235 43.9223 16.5155 42.7179 16.7281C41.5138 16.9409 40.7069 18.0932 40.9191 19.2971Z" fill="white"/>
<path d="M42.2161 18.4055C42.2352 18.3936 42.2693 18.3716 42.3113 18.3444C42.4934 18.2238 42.8493 17.9881 42.8584 17.981C42.9089 17.9471 42.9571 17.9147 43.0043 17.8828C43.1611 17.7766 43.3041 17.6842 43.4376 17.6073C43.4889 17.5781 43.5392 17.5508 43.5883 17.5264C43.7997 17.4194 44.004 17.3548 44.2434 17.3337C44.4282 17.4672 44.5894 17.6325 44.7175 17.8236C44.1665 18.0227 43.6297 18.3416 42.5072 19.0379C42.4429 18.8897 42.2293 18.4333 42.2161 18.4055Z" fill="#F14B51"/>
<path d="M42.7334 19.5942C42.7107 19.5384 42.6113 19.2889 42.5732 19.1929C43.7198 18.4793 44.2549 18.1635 44.8072 17.9681C44.8924 18.122 44.957 18.29 44.999 18.4687C44.6831 18.9018 43.8378 19.3273 42.7334 19.5942Z" fill="#F14B51"/>
<path d="M42.8578 17.7807C42.4272 17.5262 41.9389 17.5955 41.561 17.7243C41.7019 17.5426 41.8733 17.3839 42.0713 17.2603C42.4272 17.1894 42.9191 17.1783 43.3104 17.4897C43.169 17.5734 43.0209 17.671 42.8578 17.7807Z" fill="#F14B51"/>
<path d="M44.5731 19.8361C44.5169 19.8755 44.4581 19.9131 44.3943 19.9484C44.2683 20.0183 44.1313 20.0788 43.99 20.1306C43.9294 20.1533 43.8679 20.1744 43.8064 20.1943C43.592 20.2652 43.097 20.3937 43.0599 20.4022C43.0516 20.3833 42.8658 19.925 42.7969 19.7509C43.6531 19.5385 44.5903 19.1667 45.0372 18.6832C45.0639 18.9065 45.0523 19.1273 45.006 19.3367C44.9117 19.5415 44.761 19.7047 44.5731 19.8361Z" fill="#F14B51"/>
<path d="M43.0314 20.5812L43.2089 20.5352C43.3751 20.4931 43.5558 20.4459 43.7386 20.3899C43.6482 20.5797 43.5087 20.7276 43.3595 20.8421C43.1596 20.8687 42.9614 20.8637 42.7725 20.8308C42.9081 20.7241 43.0314 20.5812 43.0314 20.5812" fill="#F14B51"/>
<path d="M41.2396 18.3466C41.2806 18.2136 41.3331 18.0848 41.4019 17.9647C41.7386 17.8141 42.2517 17.667 42.7012 17.8867L42.0823 18.2958C41.9529 18.2843 41.8342 18.2807 41.7251 18.2834C41.6666 18.2843 41.6111 18.2875 41.5577 18.2927C41.4366 18.3034 41.3342 18.3229 41.2396 18.3466" fill="#F14B51"/>
<path d="M41.5569 18.4599C41.5745 19.4779 42.0556 20.2631 42.4696 20.7544C41.8206 20.5294 41.3094 19.9715 41.1834 19.2508C41.1402 19.0045 41.1463 18.7623 41.1935 18.5318C41.2933 18.5005 41.4143 18.4743 41.5569 18.4599" fill="#F14B51"/>
<path d="M43.4663 17.4035C43.1762 17.1479 42.833 17.0616 42.5178 17.0545C42.5977 17.0289 42.679 17.0068 42.7649 16.9923C43.2147 16.9128 43.6551 16.9966 44.0291 17.1992C43.8307 17.2382 43.6503 17.3081 43.4663 17.4035Z" fill="#F14B51"/>
<path d="M42.0591 18.4609C42.2068 18.7678 42.2918 18.9557 42.3661 19.1267C42.3874 19.1785 42.4079 19.2288 42.4296 19.2811C42.4646 19.3668 42.5703 19.6333 42.5703 19.6333L42.633 19.7897L42.9072 20.4674C42.8312 20.5674 42.7406 20.649 42.6504 20.7127C42.2442 20.2491 41.7374 19.47 41.7232 18.4501C41.825 18.4465 41.938 18.4502 42.0591 18.4609" fill="#F14B51"/>
<path d="M43.9429 20.3225C44.0794 20.2756 44.2146 20.222 44.3445 20.1593C44.295 20.3078 44.2272 20.4396 44.1564 20.5526C44.0107 20.6463 43.8505 20.7201 43.6803 20.7728C43.7908 20.648 43.8864 20.5003 43.9429 20.3225Z" fill="#F14B51"/>
<path d="M44.5454 20.0497C44.6367 19.9942 44.723 19.9325 44.803 19.8648C44.7127 20.026 44.5999 20.1739 44.4676 20.3035C44.4983 20.2226 44.526 20.1389 44.5454 20.0497Z" fill="#F14B51"/>
</svg>
